HIERARCHY
ROOT Hips
{
	OFFSET -9.901980 91.463200 41.001900
	CHANNELS 6 Xposition Yposition Zposition Zrotation Yrotation Xrotation 
	JOINT Spine
	{
		OFFSET 0.000000 4.732610 7.098920
		CHANNELS 3 Zrotation Yrotation Xrotation
		JOINT Spine1
		{
			OFFSET 0.000000 0.000000 9.465210
			CHANNELS 3 Zrotation Yrotation Xrotation
			JOINT Spine2
			{
				OFFSET 0.000000 0.000000 9.465220
				CHANNELS 3 Zrotation Yrotation Xrotation
				JOINT Spine3
				{
					OFFSET 0.000000 0.000000 9.465210
					CHANNELS 3 Zrotation Yrotation Xrotation
					JOINT Neck
					{
						OFFSET 0.000010 -3.549470 24.846200
						CHANNELS 3 Zrotation Yrotation Xrotation
						JOINT Head
						{
							OFFSET 0.000000 -0.000025 13.014700
							CHANNELS 3 Zrotation Yrotation Xrotation
							End Site
							{
								OFFSET 0.000000 0.000000 0.000000
							}
						}
					}
					JOINT RightShoulder
					{
						OFFSET -3.199490 -5.332480 17.277200
						CHANNELS 3 Zrotation Yrotation Xrotation
						JOINT RightArm
						{
							OFFSET 15.890800 0.000000 0.000000
							CHANNELS 3 Zrotation Yrotation Xrotation
							JOINT RightForeArm
							{
								OFFSET 29.543600 0.000000 0.000048
								CHANNELS 3 Zrotation Yrotation Xrotation
								JOINT RightHand
								{
									OFFSET 23.265200 0.000000 0.000000
									CHANNELS 3 Zrotation Yrotation Xrotation
									JOINT RightHandEnd
									{
										OFFSET 6.961150 0.000000 0.000000
										CHANNELS 3 Zrotation Yrotation Xrotation
										End Site
										{
											OFFSET 0.000000 0.000000 0.000000
										}
									}
									JOINT RightHandThumb1
									{
										OFFSET 2.784460 -4.640770 1.856310
										CHANNELS 3 Zrotation Yrotation Xrotation
										JOINT RightHandThumb2
										{
											OFFSET 6.961160 0.000000 0.000013
											CHANNELS 3 Zrotation Yrotation Xrotation
											End Site
											{
												OFFSET 0.000000 0.000000 0.000000
											}
										}
									}
								}
							}
						}
					}
					JOINT LeftShoulder
					{
						OFFSET 3.199490 -5.332490 17.277200
						CHANNELS 3 Zrotation Yrotation Xrotation
						JOINT LeftArm
						{
							OFFSET 15.890800 0.000000 0.000000
							CHANNELS 3 Zrotation Yrotation Xrotation
							JOINT LeftForeArm
							{
								OFFSET 29.543700 0.000000 0.000066
								CHANNELS 3 Zrotation Yrotation Xrotation
								JOINT LeftHand
								{
									OFFSET 23.265200 0.000000 0.000000
									CHANNELS 3 Zrotation Yrotation Xrotation
									JOINT LeftHandEnd
									{
										OFFSET 6.961150 0.000000 0.000000
										CHANNELS 3 Zrotation Yrotation Xrotation
										End Site
										{
											OFFSET 0.000000 0.000000 0.000000
										}
									}
									JOINT LeftHandThumb1
									{
										OFFSET 2.784470 -4.640770 -1.856300
										CHANNELS 3 Zrotation Yrotation Xrotation
										JOINT LeftHandThumb2
										{
											OFFSET 6.961150 0.000000 0.000000
											CHANNELS 3 Zrotation Yrotation Xrotation
											End Site
											{
												OFFSET 0.000000 0.000000 0.000000
											}
										}
									}
								}
							}
						}
					}
				}
			}
		}
	}
	JOINT RightUpLeg
	{
		OFFSET -9.491840 0.000000 -2.772890
		CHANNELS 3 Zrotation Yrotation Xrotation
		JOINT RightLeg
		{
			OFFSET 41.211800 0.000674 0.000098
			CHANNELS 3 Zrotation Yrotation Xrotation
			JOINT RightFoot
			{
				OFFSET 45.609100 0.000000 0.000000
				CHANNELS 3 Zrotation Yrotation Xrotation
				JOINT RightToeBase
				{
					OFFSET 17.096900 0.000000 0.000000
					CHANNELS 3 Zrotation Yrotation Xrotation
					End Site
					{
						OFFSET 0.000000 0.000000 0.000000
					}
				}
			}
		}
	}
	JOINT LeftUpLeg
	{
		OFFSET 9.491830 0.000000 -2.772890
		CHANNELS 3 Zrotation Yrotation Xrotation
		JOINT LeftLeg
		{
			OFFSET 41.211800 -0.000111 0.000000
			CHANNELS 3 Zrotation Yrotation Xrotation
			JOINT LeftFoot
			{
				OFFSET 45.609200 0.000000 0.000000
				CHANNELS 3 Zrotation Yrotation Xrotation
				JOINT LeftToeBase
				{
					OFFSET 17.096900 0.000000 0.000000
					CHANNELS 3 Zrotation Yrotation Xrotation
					End Site
					{
						OFFSET 0.000000 0.000000 0.000000
					}
				}
			}
		}
	}
}
MOTION
Frames: 10
Frame Time: 0.033333
-2.804420 94.543800 -4.031280 -178.681326 8.754128 91.559373 0.938471 -1.652471 -4.480449 1.059327 -0.265306 7.122746 0.209283 0.446356 11.333328 0.322690 -0.301010 2.111155 -0.441698 1.709456 10.363294 -1.216165 -0.575504 -17.961999 -179.615249 2.629865 168.418769 20.917761 -69.097334 -79.646079 -85.080130 -3.641891 1.188389 1.981698 -2.980960 -10.219835 0.330365 0.090590 -90.472422 -16.198654 -0.464023 170.336618 -0.341105 0.264858 0.125851 0.533743 2.512179 12.795324 19.342002 70.426353 83.180896 -79.698691 -0.698171 -0.117254 0.326168 0.317969 5.869304 0.123492 0.483988 90.016852 -15.440407 -0.799445 170.128286 0.175152 0.163516 0.213482 -102.867872 75.622184 -95.134233 27.805083 -1.165717 -0.091299 -82.353983 5.370897 3.793631 -19.828753 -0.401585 0.103558 -65.001936 77.805269 -72.838252 27.707008 -2.901922 1.449589 -80.162364 -1.917709 -5.237667 -20.154607 -0.267209 -0.215145 
-2.972350 94.371696 -3.763150 -178.811846 8.273349 91.622191 0.597857 -1.273718 -4.579855 1.085388 -0.621973 6.600598 -0.009168 0.613965 11.446874 0.160120 -0.155601 2.060074 -0.554867 1.777130 11.202294 -1.380486 -0.578643 -17.602401 179.614756 3.238306 168.634611 19.061303 -68.068715 -78.583056 -85.903519 -3.853700 1.066640 1.856989 -3.318842 -10.545824 0.374589 0.075315 -90.372121 -15.470061 -0.586778 170.247004 -0.266834 0.358701 0.078588 1.220498 2.529024 12.982759 19.049579 69.408168 83.336393 -78.609128 -0.660533 -0.405936 -0.394895 2.101674 5.187103 0.026586 0.336910 89.605970 -16.148768 -0.701389 170.151529 0.378584 0.284844 0.061076 -105.775242 77.011815 -97.622379 25.229381 -1.831965 0.495162 -83.163471 4.839959 4.000601 -19.959872 -0.342894 -0.038273 -66.664123 78.278711 -74.967630 27.030714 -2.478730 0.630202 -82.112721 -2.899403 -5.047241 -19.824173 -0.468857 -0.179965 
-2.959480 94.155403 -3.488480 -179.079497 7.956739 91.729830 0.319282 -1.144937 -5.057952 0.900244 -0.230845 6.648871 0.069843 0.458304 11.453210 0.051023 0.085906 1.932239 -0.076830 2.341541 11.018550 -1.549397 -0.666620 -17.075174 178.832625 3.992006 168.655742 18.669242 -67.170508 -78.214291 -86.365881 -4.222695 0.670153 1.781273 -4.949665 -12.354777 0.325157 0.152453 -90.429040 -15.287870 -0.910118 170.352636 -0.216063 0.286909 0.065704 1.391608 2.733886 13.313261 18.424384 68.085936 82.676512 -77.816266 -0.460079 -0.480659 0.553063 3.750891 6.775670 0.108695 0.458840 89.695496 -15.061274 -0.516839 170.071659 0.356015 0.186206 -0.043052 -107.634810 78.294575 -99.412801 22.691764 -1.994632 1.034269 -82.776905 5.397237 3.908426 -19.824546 -0.314590 0.082028 -66.315523 79.266553 -75.536423 25.929626 -1.551564 0.079868 -83.557982 -3.255750 -4.716473 -19.726410 -0.508827 -0.029212 
-2.864960 93.931297 -3.324520 -179.182655 7.399961 92.022602 0.129539 -1.058142 -5.421986 0.631181 -0.148456 6.479357 -0.121021 0.459093 11.218513 -0.012405 0.341727 2.039671 0.262341 2.898867 11.086129 -1.410071 -0.577391 -16.633827 178.311088 4.753854 168.493393 19.146790 -66.488488 -78.298373 -86.622538 -4.388999 0.300030 2.354611 -6.430041 -12.971711 0.436802 0.065965 -90.430292 -14.748515 -0.894199 170.155838 -0.212849 0.365791 0.295007 1.750758 3.075264 13.584753 17.958995 67.212413 81.845695 -76.656504 -0.084043 -0.169379 1.189437 4.294238 9.374137 0.144391 0.407297 89.611945 -14.522840 -0.637189 170.138926 0.322331 0.347703 0.090002 -109.359593 79.605492 -101.100961 20.141764 -1.848296 1.490082 -82.532365 5.597890 4.031136 -19.405925 -0.320544 0.067594 -64.897496 80.492972 -74.769888 23.747820 -0.765808 -0.366581 -84.412644 -3.725370 -4.775437 -20.031949 -0.372570 -0.096040 
-2.729830 93.754097 -3.331120 -179.194186 6.963931 92.274301 0.162535 -0.992833 -5.738399 0.576090 -0.046782 6.328007 -0.289690 0.328605 11.100488 -0.098783 0.550595 2.028976 0.400483 2.969132 11.220659 -1.356568 -0.594933 -16.270219 177.526546 4.884157 168.103766 21.811735 -66.627553 -80.583487 -86.951625 -3.744850 0.163995 2.205744 -6.817430 -11.320128 0.508739 -0.092551 -90.350220 -14.672576 -0.516572 170.171353 -0.253682 0.400053 0.255351 2.209062 3.087832 13.742307 18.488549 66.957471 82.166604 -76.278788 -0.732329 0.326872 1.579973 4.854908 9.393272 0.026209 0.355111 89.680405 -14.728827 -0.240273 170.080578 0.460570 0.326193 0.062722 -110.951003 80.692177 -102.928437 17.917975 -1.605500 1.622993 -82.308580 5.506711 3.896249 -19.581025 -0.316396 -0.057915 -61.619316 81.597772 -71.845836 21.731229 -0.112624 -0.457739 -83.642578 -2.930020 -4.808719 -20.123408 -0.316586 -0.035304 
-2.579490 93.712700 -3.469000 -179.217825 6.474307 92.380084 0.178794 -0.833152 -5.857187 0.444061 -0.085871 6.298776 -0.205347 0.381419 10.809409 -0.062335 0.487601 2.006096 0.463984 3.231183 11.089075 -1.175818 -0.566707 -15.984178 176.693054 5.025042 167.619574 24.065341 -66.469353 -82.497589 -87.121887 -3.448578 0.139709 2.048150 -6.765969 -10.289939 0.345653 -0.097606 -90.473356 -14.653829 -0.421737 170.349225 -0.328402 0.412440 0.341706 2.395682 3.262613 13.665877 18.322225 66.770624 81.784910 -76.269973 -0.648414 0.426856 1.300587 4.870440 9.668146 0.054963 0.377220 89.769593 -14.466644 0.303329 170.242829 0.444790 0.337864 0.106584 -113.846407 81.868635 -105.832603 16.007954 -1.256865 1.526719 -81.921799 5.212607 4.274524 -19.780583 -0.228262 0.073202 -60.024676 82.481850 -70.024088 20.190125 0.190932 -0.600219 -82.329104 -2.077934 -4.921255 -20.124802 -0.166985 -0.035927 
-2.468790 93.729698 -3.383520 -179.610969 5.956877 92.561948 0.207300 -0.698277 -5.981250 0.426904 0.175655 6.040458 -0.135181 0.359234 10.657849 -0.185635 0.701622 1.923823 0.365590 3.199045 10.374953 -0.888873 -0.435414 -15.676782 176.373158 5.571143 167.148403 25.324384 -66.198368 -83.423989 -86.933614 -3.097997 0.366592 2.239630 -6.311093 -9.545167 0.434458 -0.106665 -90.306234 -14.579527 -0.509249 170.228905 -0.255272 0.298824 0.312336 2.447882 3.483170 13.499959 17.753607 66.340779 81.063172 -76.265431 -0.817267 0.442333 1.525108 5.351215 9.262638 0.061361 0.266797 89.869128 -14.639771 0.198419 170.243779 0.342253 0.281661 0.122807 -119.573533 82.538540 -111.485500 14.836919 -1.062193 1.431633 -82.211365 5.117124 4.266203 -20.053400 -0.310510 0.082705 -61.959464 82.847766 -71.669852 19.309458 0.316376 -0.343794 -81.561261 -0.998365 -4.868774 -19.915048 -0.243938 -0.081600 
-2.386880 93.788696 -3.058400 -179.896515 5.453348 92.677055 0.213806 -0.633069 -6.015499 0.329848 0.365359 5.775568 -0.028002 0.619717 10.704830 -0.127047 0.719652 1.666745 0.361865 3.465987 9.785957 -0.609858 -0.408443 -15.504799 176.293856 6.154243 166.826795 26.585061 -66.209004 -84.385710 -86.465100 -2.299946 0.463109 2.461064 -5.673770 -7.829898 0.334082 -0.009294 -90.286451 -14.616706 -0.455288 170.180347 -0.242432 0.338034 0.307252 2.523591 3.514681 13.228695 17.033181 66.022883 80.313787 -76.149720 -0.807922 0.476584 1.543581 4.996619 9.215082 0.092509 0.447740 89.827564 -14.626658 0.188680 170.233582 0.357970 0.278472 0.122119 -124.645012 83.024789 -116.410720 13.976342 -1.094083 1.238160 -82.583331 4.792772 4.350899 -20.199746 -0.231546 0.106825 -63.905121 82.743715 -73.322091 18.942259 0.422292 -0.129296 -80.749694 -0.512165 -4.762042 -19.624943 -0.186577 -0.046750 
-2.278360 93.898903 -2.677760 -179.944273 4.879130 92.712122 0.223013 -0.487228 -6.025132 0.181997 0.366102 5.761141 -0.053136 0.796353 10.514458 -0.062557 0.682779 1.546800 0.534331 3.540341 9.176746 -0.588427 -0.336997 -15.587075 176.441278 6.695657 166.612575 27.596677 -66.377082 -85.173197 -85.775712 -1.436237 0.365012 2.026069 -4.786946 -5.937032 0.299805 -0.022647 -90.266873 -14.566477 -0.115922 170.298840 -0.149474 0.258669 0.194064 2.363306 3.658261 13.170513 16.372754 65.746378 79.575372 -76.210773 -0.954646 0.542856 1.411957 4.627320 9.564397 0.017003 0.469825 89.811252 -14.963159 0.310517 170.252335 0.263658 0.182227 0.104498 -127.369365 83.524451 -119.008856 13.470561 -0.998180 1.185975 -82.721790 4.787536 4.337915 -20.009618 -0.090257 0.125516 -64.036997 82.550321 -73.035047 18.925788 0.564818 -0.057933 -80.609891 -0.070938 -4.786560 -19.365820 -0.397544 -0.038542 
-2.106290 94.035500 -2.335280 -179.915915 4.439206 92.863885 0.327878 -0.530393 -6.286144 0.129203 0.522490 5.709526 -0.096324 0.865521 10.499443 -0.097323 0.688916 1.505531 0.482488 3.479176 8.640636 -0.599952 -0.271310 -15.460934 176.699060 7.072047 166.736133 28.272020 -66.586995 -85.602583 -85.378209 -1.147804 0.365451 1.914898 -3.969754 -6.146549 0.401038 -0.010214 -90.313806 -14.493046 0.138001 170.228013 -0.248348 0.234286 0.208353 2.256351 3.660840 13.000045 15.607313 65.646601 78.957791 -76.130127 -0.707569 0.359357 1.557737 4.620842 10.288137 0.016492 0.509797 89.793813 -15.281658 0.318159 170.217912 0.252675 0.204201 0.227793 -130.210855 84.149584 -121.815918 12.698879 -0.803144 1.149047 -82.416050 5.008432 4.422544 -19.725152 -0.069927 0.104286 -62.166784 82.628797 -70.913049 18.423315 0.678631 0.145747 -80.648329 0.250441 -4.656444 -19.179773 -0.297375 -0.041078 
